<svg xmlns="http://www.w3.org/2000/svg" viewBox="0 0 50 50"><circle cx="25" cy="25" r="24.59" fill="#3c5a99" transform="matrix(.23 -.97 .97 .23 -5.08 43.59)"/><path fill="#fff" fill-rule="evenodd" d="M20.92 25.28v15.06a.39.39 0 0 0 .4.39h5.59a.38.38 0 0 0 .39-.39V25h4.06a.39.39 0 0 0 .39-.36l.39-4.61a.39.39 0 0 0-.39-.42H27.3v-3.25A1.38 1.38 0 0 1 28.69 15h3.13a.4.4 0 0 0 .39-.4V10a.4.4 0 0 0-.39-.39h-5.28a5.62 5.62 0 0 0-5.62 5.61v4.45h-2.79a.38.38 0 0 0-.39.39v4.61a.38.38 0 0 0 .39.39h2.79z"/></svg>