<svg xmlns="http://www.w3.org/2000/svg" id="svg3778" width="50" height="50" x="0" y="0" version="1.1" xml:space="preserve"><style id="style3758" type="text/css"/><g id="Artwork" transform="translate(-24.97 -24.97) scale(.2924)"><g id="g3764"><circle id="circle3760" cx="170.9" cy="170.9" r="85.5" fill="#ff4500"/><path id="path3762" fill="#fff" d="M227.9 170.9c0-6.9-5.6-12.5-12.5-12.5a12 12 0 0 0-8.6 3.5c-8.5-6.1-20.3-10.1-33.3-10.6l5.7-26.7 18.5 3.9a8.91 8.91 0 0 0 17.8-.4c0-4.9-4-8.9-8.9-8.9-3.5 0-6.5 2-7.9 5l-20.7-4.4c-.6-.1-1.2 0-1.7.3s-.8.8-1 1.4l-6.3 29.8c-13.3.4-25.2 4.3-33.8 10.6-2.2-2.1-5.3-3.5-8.6-3.5a12.5 12.5 0 0 0-5.1 23.9c-.2 1.2-.3 2.5-.3 3.8 0 19.2 22.3 34.7 49.9 34.7 27.6 0 49.9-15.5 49.9-34.7 0-1.3-.1-2.5-.3-3.7 4.1-2 7.2-6.4 7.2-11.5zm-85.5 8.9c0-4.9 4-8.9 8.9-8.9s8.9 4 8.9 8.9-4 8.9-8.9 8.9-8.9-4-8.9-8.9zm49.7 23.5c-6.1 6.1-17.7 6.5-21.1 6.5-3.4 0-15.1-.5-21.1-6.5-.9-.9-.9-2.4 0-3.3.9-.9 2.4-.9 3.3 0 3.8 3.8 12 5.2 17.9 5.2 5.9 0 14-1.4 17.9-5.2.9-.9 2.4-.9 3.3 0 .7 1 .7 2.4-.2 3.3zm-1.6-14.6c-4.9 0-8.9-4-8.9-8.9s4-8.9 8.9-8.9 8.9 4 8.9 8.9-4 8.9-8.9 8.9z"/></g></g></svg>