<svg xmlns="http://www.w3.org/2000/svg" viewBox="0 0 50 50"><circle cx="25" cy="24.97" r="24.59" fill="#3cf" transform="rotate(-77.84 24.998 24.973)"/><path fill="#fff" d="M40.6 16.24a12.48 12.48 0 0 1-3.06.88c.49-.09 1.22-1 1.51-1.34a5.73 5.73 0 0 0 1-1.86v-.15a.15.15 0 0 0-.16 0 15.72 15.72 0 0 1-3.64 1.39.23.23 0 0 1-.25-.06 2.36 2.36 0 0 0-.31-.32 6.42 6.42 0 0 0-1.76-1.08 6.29 6.29 0 0 0-2.71-.44 6.55 6.55 0 0 0-4.62 2.42 6.27 6.27 0 0 0-1.24 2.47 6.74 6.74 0 0 0-.06 2.61c0 .14 0 .16-.13.14-5-.74-9.13-2.53-12.49-6.35-.14-.17-.22-.17-.34 0-1.47 2.2-.76 5.74 1.08 7.48a8.49 8.49 0 0 0 .77.68 6.24 6.24 0 0 1-2.4-.71c-.15-.09-.22 0-.24.13a4.29 4.29 0 0 0 0 .71A6.42 6.42 0 0 0 15.54 28a3.69 3.69 0 0 0 .8.24 6.88 6.88 0 0 1-2.36.08c-.17 0-.24.05-.17.22a6.64 6.64 0 0 0 5 4.15c.23 0 .45 0 .68.1-.56.85-2.49 1.48-3.39 1.79a12.06 12.06 0 0 1-5.16.66h-.41c-.08 0 0 .12.08.19.36.23.71.44 1.08.63a16.49 16.49 0 0 0 3.44 1.38c6.19 1.71 13.16.45 17.8-4.16 3.65-3.63 4.93-8.63 4.93-13.63 0-.2.23-.31.37-.41a12 12 0 0 0 2.41-2.52.72.72 0 0 0 .15-.48c-.08-.08-.07-.05-.19 0z"/><path fill="#fff" fill-rule="evenodd" d="M20.44 38.28c0-.06.53 0 0 0 0-.03.06 0 0 0zm10.71-24.84a.1.1 0 0 1-.13 0z"/></svg>